<?xml version="1.0" encoding="utf-8"?>
<!-- Generator: Adobe Illustrator 17.1.0, SVG Export Plug-In . SVG Version: 6.00 Build 0)  -->
<!DOCTYPE svg PUBLIC "-//W3C//DTD SVG 1.1//EN" "http://www.w3.org/Graphics/SVG/1.1/DTD/svg11.dtd">
<svg version="1.1" id="Design" xmlns="http://www.w3.org/2000/svg" xmlns:xlink="http://www.w3.org/1999/xlink" x="0px" y="0px"
	 viewBox="0 0 56 56" enable-background="new 0 0 56 56" xml:space="preserve">
<g>
	<path fill="#9BDAF3" d="M13,27.5c-4.136,0-7.5-3.364-7.5-7.5v-8c0-0.275,0.224-0.5,0.5-0.5h44c0.276,0,0.5,0.225,0.5,0.5v8
		c0,4.136-3.364,7.5-7.5,7.5H13z"/>
	<g>
		<path fill="#FFFFFF" d="M45,43H11c-2.209,0-4-1.791-4-4V27h42v12C49,41.209,47.209,43,45,43z"/>
		<polygon fill="#005E93" points="37,10 37,4 19,4 19,10 22,10 22,7 34,7 34,10 		"/>
		<path fill="#005E93" d="M50,10H6c-1.105,0-2,0.895-2,2v8v20c0,3.314,2.686,6,6,6h36c3.314,0,6-2.686,6-6V22v-2v-8
			C52,10.895,51.105,10,50,10z M49,40c0,1.654-1.346,3-3,3H10c-1.654,0-3-1.346-3-3V26.695C8.593,28.124,10.692,29,13,29h3v2h3v-2
			h18v2h3v-2h3c2.308,0,4.407-0.876,6-2.305V40z M49,20c0,3.308-2.692,6-6,6h-3v-3h-3v3H19v-3h-3v3h-3c-3.308,0-6-2.692-6-6v-7h42
			V20z"/>
		<rect fill="none" width="56" height="56"/>
	</g>
</g>
</svg>
